# xmcd CD database file
#
# Track frame offsets:
#	150
#	13118
#	25649
#	39198
#	50948
#	63423
#	76586
#	90261
#	103400
#	117007
#	130979
#	143489
#	156926
#	169032
#	180522
#	191314
#	202474
#	214713
#	225596
#	237398
#	250150
#	262284
#	274576
#	286087
#	298041
#
# Disc length: 4131 seconds
#
# Revision: 0
# Processed by: cddbd v1.5.2PL0 Copyright (c) Steve Scherf et al.
# Submitted via: CDex 1.51
#
DISCID=61102119
DTITLE=Jimmy Witherspoon - Ain't Nobody's Business
DYEAR=2005
DGENRE=Blues
TTITLE0=Wondering Gal Blues
TTITLE1=Hey Mr Landlord
TTITLE2=How I hate to see Xmas come around
TTITLE3=Third floor Blues
TTITLE4=Moneys Getting Cheaper
TTITLE5=Skid Row Blues
TTITLE6=How Long Blues
TTITLE7=Ain't Nobodys Business (Part 1)
TTITLE8=Ain't Nobodys Business (Part 2)
TTITLE9=Black Water Blues
TTITLE10=Frog-I-More
TTITLE11=In The Evening
TTITLE12=Spoon Calls Hootie
TTITLE13=Destruction Blues
TTITLE14=Call My Baby
TTITLE15=The New Look
TTITLE16=Big Heart
TTITLE17=Funny Style Baby
TTITLE18=Lush Head Women
TTITLE19=Long About Dawn
TTITLE20=Thelma Lee Blues
TTITLE21=Your Read Wagon
TTITLE22=Sweet Lovin' Baby
TTITLE23=Same Old Blues
TTITLE24=Big Fine Girl
EXTD=YEAR: 2005
EXTT0=
EXTT1=
EXTT2=
EXTT3=
EXTT4=
EXTT5=
EXTT6=
EXTT7=
EXTT8=
EXTT9=
EXTT10=
EXTT11=
EXTT12=
EXTT13=
EXTT14=
EXTT15=
EXTT16=
EXTT17=
EXTT18=
EXTT19=
EXTT20=
EXTT21=
EXTT22=
EXTT23=
EXTT24=
PLAYORDER=
